# xmcd
#
# Track frame offsets:
# 150
# 16785
# 32555
# 46582
# 60525
# 75145
# 85772
# 97457
# 109355
# 124440
# 144257
# 157700
# 170165
# 182895
# 202400
# 216907
# 228747
# 251832
# 266172
# 281325
#
# Disc length: 3932 seconds
#
#
# Revision: 0
# Processed by: cddbd v1.5.1PL2 Copyright (c) Steve Scherf et al.
# Submitted via: FreeRIP 2.945 
#
DISCID=1f0f5a14
DTITLE=Varios - 20 Sucessos Populares Vol 04
DYEAR=2006
DGENRE=Blues
TTITLE0=Prque Brigamos
TTITLE1=Fatalidade
TTITLE2=Foi Tudo Culpa Do Amor
TTITLE3=Ainda Queima A Esperança
TTITLE4=Esta Noite Lhe Digo Que Não
TTITLE5=A Noite Mais Linda Do Mundo
TTITLE6=Até Parece Um Sonho
TTITLE7=Vou Morar Com Ela
TTITLE8=Viciado Em Você
TTITLE9=Deixe Essa Vergonha De Lado
TTITLE10=Doce De Coco
TTITLE11=Vem Ficar Comigo
TTITLE12=Fale Baixinho
TTITLE13=Minha Namorada
TTITLE14=O Bom Rapaz
TTITLE15=A Minha Vingança
TTITLE16=Preciso De Você - Agora Faço O Que Me Convem - Preciso Esquecer Que Te Amo - Tenho Um Amor Melhor Que O Seu
TTITLE17=Ninguem Vai Tirar Você De Mim
TTITLE18=Chuva Fina E Vento Frio
TTITLE19=Lágrimas Nos Olhos
EXTD=
EXTT0=
EXTT1=
EXTT2=
EXTT3=
EXTT4=
EXTT5=
EXTT6=
EXTT7=
EXTT8=
EXTT9=
EXTT10=
EXTT11=
EXTT12=
EXTT13=
EXTT14=
EXTT15=
EXTT16=
EXTT17=
EXTT18=
EXTT19=
PLAYORDER=
